<?xml version="1.0" encoding="UTF-8"?>
<svg version="1.1" xmlns="http://www.w3.org/2000/svg" width="1000" height="1000">
<path d="M0 0 C7.0042527 6.39518725 11.86525309 15.00261941 17.015625 22.8984375 C18.85364277 25.59368204 20.81176007 28.09897728 22.875 30.625 C28.1633478 37.29581352 33.42337304 43.97823594 38.5 50.8125 C45.98991753 60.8695381 45.98991753 60.8695381 54.3984375 70.1484375 C59.62892988 75.37892988 64.03802227 81.32771745 68.1875 87.4375 C72.23478845 93.31943629 76.88268913 98.63919378 81.53027344 104.04638672 C83.51506103 106.3763861 85.44535564 108.74925506 87.375 111.125 C90.66323483 115.16483137 94.00221426 119.15592065 97.375 123.125 C100.74778574 127.09407935 104.08676517 131.08516863 107.375 135.125 C112.45675677 141.36416756 117.66394106 147.49391962 122.875 153.625 C128.8350827 160.63734558 134.75258795 167.67460805 140.5625 174.8125 C143.13646392 177.94299666 145.75069086 181.03672461 148.375 184.125 C152.49601634 188.97459381 156.54491354 193.87660806 160.5625 198.8125 C163.13646392 201.94299666 165.75069086 205.03672461 168.375 208.125 C172.49601634 212.97459381 176.54491354 217.87660806 180.5625 222.8125 C183.5993277 226.5059391 186.69460955 230.14798486 189.79125977 233.79125977 C192.6704532 237.18454109 195.50704237 240.60767786 198.3125 244.0625 C201.76774151 248.30892382 205.30197834 252.47796294 208.875 256.625 C213.19428956 261.63819488 217.42597119 266.7103732 221.59765625 271.84765625 C224.15704054 274.96896367 226.76093791 278.0495003 229.375 281.125 C232.74783589 285.09403543 236.08676645 289.08517021 239.375 293.125 C242.72951505 297.24436857 246.12961274 301.32100639 249.5625 305.375 C250.02889893 305.92647705 250.49529785 306.4779541 250.97583008 307.04614258 C253.47524392 309.99521003 256.0063196 312.91268214 258.5625 315.8125 C260.875 318.625 260.875 318.625 260.875 320.625 C261.535 320.625 262.195 320.625 262.875 320.625 C264.41126433 322.46729308 265.8360474 324.31665309 267.25 326.25 C270.94970832 331.1856683 274.77511998 335.96134458 278.8125 340.625 C279.31483154 341.20564209 279.81716309 341.78628418 280.3347168 342.38452148 C281.34825103 343.5545084 282.3623269 344.72402635 283.37695312 345.89306641 C285.79077986 348.68375853 288.17892117 351.49596233 290.5625 354.3125 C291.0174585 354.85003906 291.47241699 355.38757813 291.94116211 355.94140625 C295.52968166 360.19293022 299.05040644 364.4976422 302.5625 368.8125 C305.13646392 371.94299666 307.75069086 375.03672461 310.375 378.125 C314.49601634 382.97459381 318.54491354 387.87660806 322.5625 392.8125 C325.13646392 395.94299666 327.75069086 399.03672461 330.375 402.125 C334.49601634 406.97459381 338.54491354 411.87660806 342.5625 416.8125 C345.5993277 420.5059391 348.69460955 424.14798486 351.79125977 427.79125977 C354.6704532 431.18454109 357.50704237 434.60767786 360.3125 438.0625 C363.76774151 442.30892382 367.30197834 446.47796294 370.875 450.625 C375.19428956 455.63819488 379.42597119 460.7103732 383.59765625 465.84765625 C386.15704054 468.96896367 388.76093791 472.0495003 391.375 475.125 C395.49607792 479.97454051 399.54491483 484.87660964 403.5625 489.8125 C406.13646392 492.94299666 408.75069086 496.03672461 411.375 499.125 C415.49601634 503.97459381 419.54491354 508.87660806 423.5625 513.8125 C426.5993277 517.5059391 429.69460955 521.14798486 432.79125977 524.79125977 C435.6704532 528.18454109 438.50704237 531.60767786 441.3125 535.0625 C444.76774151 539.30892382 448.30197834 543.47796294 451.875 547.625 C456.19428956 552.63819488 460.42597119 557.7103732 464.59765625 562.84765625 C467.15704054 565.96896367 469.76093791 569.0495003 472.375 572.125 C476.49607792 576.97454051 480.54491483 581.87660964 484.5625 586.8125 C487.59504003 590.50072436 490.68593999 594.13762854 493.77807617 597.77587891 C497.52883108 602.19667031 501.20566048 606.67435239 504.859375 611.17578125 C506.67838731 613.38609272 508.54365274 615.54143476 510.4375 617.6875 C512.875 620.625 512.875 620.625 512.875 622.625 C513.535 622.625 514.195 622.625 514.875 622.625 C516.42578125 624.41796875 516.42578125 624.41796875 518.1875 626.8125 C520.26757255 629.58012791 522.29961132 632.17884559 524.8125 634.5625 C525.493125 635.243125 526.17375 635.92375 526.875 636.625 C526.875 637.285 526.875 637.945 526.875 638.625 C527.514375 638.8725 528.15375 639.12 528.8125 639.375 C531.419301 640.95487939 531.16695078 641.79280311 531.875 644.625 C532.46539063 644.89828125 533.05578125 645.1715625 533.6640625 645.453125 C536.50445067 646.95863109 537.81933871 648.81629227 539.75 651.375 C542.15291343 654.48888781 544.53327916 657.40449 547.375 660.125 C549.875 662.625 549.875 662.625 549.875 664.625 C550.473125 664.893125 551.07125 665.16125 551.6875 665.4375 C555.84625222 667.69510835 557.43491549 670.56730134 559.72265625 674.66796875 C563.76515428 681.53336371 568.78480098 686.57002469 574.875 691.625 C576.50754058 693.01200647 578.13254219 694.4079339 579.75 695.8125 C580.48992188 696.44542969 581.22984375 697.07835937 581.9921875 697.73046875 C583.88511294 699.63517588 584.91914704 701.12859679 585.875 703.625 C585.71948432 706.73531367 585.15526756 708.25987459 583.25585938 710.734375 C580.0488379 713.28104997 577.98697798 713.22638472 573.90625 713.375 C573.17353882 713.40392334 572.44082764 713.43284668 571.68591309 713.46264648 C560.93612336 713.82055579 550.16760243 713.69489033 539.41397095 713.64331055 C532.34242345 713.60962005 525.27083877 713.59865364 518.19921875 713.59375 C517.09022248 713.59292671 517.09022248 713.59292671 515.95882225 713.59208679 C498.0325816 713.58493677 480.11119186 713.84631766 462.1875 714.125 C456.04169133 714.22042744 449.89587431 714.31513343 443.75 714.40625 C443.01470881 714.41715668 442.27941761 714.42806335 441.52184486 714.43930054 C427.33651847 714.64620542 413.15464477 714.66823825 398.96807861 714.61474609 C386.62560177 714.5715876 374.33079482 714.77498864 361.99682617 715.26733398 C350.6212417 715.71503865 339.25759113 715.72958983 327.875 715.625 C327.875 714.965 327.875 714.305 327.875 713.625 C327.153125 713.398125 326.43125 713.17125 325.6875 712.9375 C319.54462159 710.07082341 316.33496898 704.52071276 312.62109375 699.09765625 C310.7319355 696.42240531 308.69935927 693.98010717 306.53515625 691.52734375 C299.75236122 683.75505863 293.41496333 675.58824703 287.16796875 667.3828125 C283.59126814 662.71614669 279.8383431 658.29630482 275.90234375 653.9296875 C273.15185067 650.80292273 270.58120892 647.54809254 268 644.28125 C265.71062785 641.41953482 263.36059085 638.61570163 261 635.8125 C257.45378553 631.58641312 254.06839535 627.28100645 250.75 622.875 C247.40228102 618.43881856 243.84506103 614.49731985 239.82421875 610.6640625 C236.03026693 606.69523916 233.01758953 602.11242275 229.875 597.625 C229.30394531 596.89796875 228.73289062 596.1709375 228.14453125 595.421875 C226.875 593.625 226.875 593.625 226.875 591.625 C226.215 591.625 225.555 591.625 224.875 591.625 C223.32421875 589.8671875 223.32421875 589.8671875 221.5625 587.5 C220.93988281 586.67757812 220.31726563 585.85515625 219.67578125 585.0078125 C219.08152344 584.22148438 218.48726563 583.43515625 217.875 582.625 C215.60075282 579.75830187 213.28514418 577.01865237 210.640625 574.48046875 C207.20137285 570.92948948 204.25079286 567.10985826 201.25 563.1875 C200.00806508 561.57793008 198.7658745 559.9685574 197.5234375 558.359375 C196.90952148 557.56208984 196.29560547 556.76480469 195.66308594 555.94335938 C187.31530614 545.08525674 187.31530614 545.08525674 178.52734375 534.5859375 C176.09275812 531.69666567 173.76912079 528.72262155 171.4375 525.75 C170.95700195 525.13833984 170.47650391 524.52667969 169.98144531 523.89648438 C167.91452956 521.25816871 165.86525078 518.61198847 163.85546875 515.9296875 C161.22480546 512.42609531 158.73888363 509.37207881 155.3125 506.625 C151.90841583 503.87612672 149.91756856 500.79555006 147.6015625 497.1171875 C144.19802579 492.20439016 139.94209519 487.98811795 135.875 483.625 C134.55510386 482.1524293 133.24166187 480.67402349 131.9375 479.1875 C131.41285156 478.59066406 130.88820313 477.99382812 130.34765625 477.37890625 C125.875 472.0520557 125.875 472.0520557 125.875 469.625 C125.2665625 469.37234375 124.658125 469.1196875 124.03125 468.859375 C121.54718393 467.43733718 120.81087296 466.32334749 119.375 463.875 C113.05479286 453.95689157 104.64993564 445.41370923 96.67578125 436.81762695 C93.42685188 433.29104673 90.42953427 429.64621169 87.54296875 425.8203125 C85.74857383 423.45860302 83.87836465 421.17036899 82 418.875 C78.02295914 413.93851738 74.47850898 408.77052599 70.953125 403.5078125 C69.08148827 400.91144425 67.17968654 398.82848274 64.875 396.625 C63.67570224 395.28127068 62.48787843 393.92720113 61.3125 392.5625 C59.66586211 390.65181327 58.05784091 388.79746696 56.22265625 387.06640625 C54.875 385.625 54.875 385.625 53.875 382.625 C53.153125 381.903125 52.43125 381.18125 51.6875 380.4375 C48.96995544 377.71995544 46.80503664 374.9484922 44.5390625 371.86328125 C38.38543427 363.58621792 31.90082021 355.38576532 24.375 348.3125 C21.58678413 345.58597032 19.63430337 342.77677084 17.625 339.4375 C14.52847802 334.34885892 10.94276545 330.20846645 6.86572266 325.91333008 C3.65104133 322.51869346 0.85253911 319.01082596 -1.8671875 315.21875 C-3.19133829 313.41752569 -3.19133829 313.41752569 -5.625 311.625 C-7.88409595 309.81772324 -9.19428011 308.33746901 -10.87890625 306.03515625 C-11.40564941 305.32117676 -11.93239258 304.60719727 -12.47509766 303.87158203 C-13.01956543 303.13020996 -13.5640332 302.38883789 -14.125 301.625 C-16.26011198 298.76267897 -18.40964419 295.91148882 -20.5625 293.0625 C-21.09681641 292.34642578 -21.63113281 291.63035156 -22.18164062 290.89257812 C-25.36829354 286.68833857 -28.72456429 282.93979748 -32.50708008 279.26635742 C-34.85457593 276.88485529 -36.79026917 274.26692854 -38.75 271.5625 C-41.14677393 268.28895748 -43.52892156 265.06527316 -46.1875 262 C-48.125 259.625 -48.125 259.625 -48.125 257.625 C-48.785 257.625 -49.445 257.625 -50.125 257.625 C-51.359375 256.25390625 -51.359375 256.25390625 -52.875 254.1875 C-60.40029696 244.24783693 -68.29968686 234.5487749 -76.8125 225.4375 C-83.81507207 217.92884234 -90.04912344 209.8319595 -96.125 201.5625 C-99.25853082 197.32032231 -102.71184068 193.34732226 -106.16796875 189.36694336 C-108.37254426 186.80475241 -110.33759146 184.30412225 -112.2109375 181.4765625 C-113.99595869 178.81724521 -115.83568553 176.84192508 -118.125 174.625 C-119.35190208 173.09806947 -120.55938889 171.55539408 -121.75 170 C-124.6524422 166.31675239 -127.6875937 163.00418648 -131.0625 159.75 C-136.46104328 154.48475409 -140.7413506 148.73880141 -145.125 142.625 C-145.70378906 141.89023437 -146.28257812 141.15546875 -146.87890625 140.3984375 C-148.125 138.625 -148.125 138.625 -148.125 136.625 C-149.115 136.295 -150.105 135.965 -151.125 135.625 C-155.125 131.16785714 -155.125 131.16785714 -155.125 128.625 C-155.785 128.625 -156.445 128.625 -157.125 128.625 C-158.4921875 127.05078125 -158.4921875 127.05078125 -160 124.9375 C-161.78048472 122.47187778 -163.56068293 120.09759434 -165.5 117.75 C-167.125 115.625 -167.125 115.625 -167.125 113.625 C-167.785 113.625 -168.445 113.625 -169.125 113.625 C-170.640625 111.9375 -170.640625 111.9375 -172.375 109.625 C-172.99761719 108.80515625 -173.62023437 107.9853125 -174.26171875 107.140625 C-175.4208998 105.57560908 -176.57106084 104.00381898 -177.70703125 102.421875 C-180.35565322 98.759928 -182.80142731 96.01378593 -186.4140625 93.2421875 C-189.78570249 90.05529491 -192.366737 86.1174472 -195.07421875 82.3671875 C-196.96619176 79.69395641 -196.96619176 79.69395641 -198.89453125 77.8828125 C-200.125 76.625 -200.125 76.625 -200.125 74.625 C-200.785 74.625 -201.445 74.625 -202.125 74.625 C-203.55525226 72.98406743 -204.9192239 71.28508997 -206.25 69.5625 C-209.10970958 65.96598925 -211.88422496 62.78828554 -215.4375 59.875 C-218.41634908 57.39846664 -220.17009751 55.1321642 -221.9453125 51.63671875 C-226.13344666 44.49470188 -232.33174686 38.26798131 -237.91015625 32.18359375 C-239.125 30.625 -239.125 30.625 -239.125 28.625 C-239.785 28.625 -240.445 28.625 -241.125 28.625 C-243.00304782 26.4756786 -244.76141155 24.32037737 -246.5 22.0625 C-247.22316406 21.14887695 -247.22316406 21.14887695 -247.9609375 20.21679688 C-256.125 9.73440684 -256.125 9.73440684 -256.125 4.8125 C-255.125 2.625 -255.125 2.625 -253.54653931 1.49938965 C-250.16301428 0.27763816 -246.92780359 0.38971698 -243.38037109 0.44726562 C-242.59173801 0.45148529 -241.80310493 0.45570496 -240.99057388 0.46005249 C-239.25693735 0.47009075 -237.5233223 0.48455449 -235.78975296 0.50282288 C-230.93385145 0.55272294 -226.07778294 0.56676894 -221.22167969 0.5859375 C-219.65250888 0.59337353 -219.65250888 0.59337353 -218.05163765 0.60095978 C-205.25494263 0.65338303 -192.46006784 0.52829451 -179.6640625 0.40625 C-177.19960594 0.38363848 -174.73514874 0.36109646 -172.27069092 0.33862305 C-166.02966785 0.28114212 -159.78866641 0.22157684 -153.54766846 0.16143799 C-143.42533944 0.06431595 -133.30297613 -0.0291727 -123.18061447 -0.12281799 C-119.69491656 -0.15537798 -116.20922864 -0.18886813 -112.72354126 -0.22253418 C-93.53775376 -0.40479047 -93.53775376 -0.40479047 -84.56486511 -0.36132812 C-80.63821497 -0.38333126 -76.7307477 -0.6367744 -72.8125 -0.875 C-59.83279506 -1.58118374 -46.8419527 -1.430236 -33.84838867 -1.33789062 C-32.99652985 -1.33366089 -32.14467102 -1.32943115 -31.26699829 -1.32507324 C-29.66286365 -1.31694655 -28.05874234 -1.30462374 -26.4546814 -1.28723145 C-2.68406406 -1.18098819 -2.68406406 -1.18098819 0 0 Z " fill="#FFE49F" transform="translate(281.125,194.375)"/>
<path d="M0 0 C1.01999769 3.15272014 1.12312989 4.67406793 -0.0625 7.8125 C-2.01295721 11.0213167 -4.11556328 13.97358307 -6.41015625 16.94140625 C-7.41773817 18.24606392 -8.40725179 19.56504735 -9.37109375 20.90234375 C-12.33568884 25.00910579 -15.54855099 28.72770899 -19 32.4375 C-22.05641526 35.7356914 -24.74649938 38.93530091 -27.125 42.75 C-29.03972719 45.7954296 -30.85801061 47.85035375 -33.6875 50.0625 C-39.64172558 54.94860115 -43.42127405 61.65666303 -47.64501953 68.00488281 C-50.30871126 71.9269889 -53.19839471 75.67400408 -56.0703125 79.4453125 C-57.68250025 81.57966632 -59.22986959 83.73755972 -60.75 85.9375 C-62.96316658 88.94986562 -65.36095866 91.36095866 -68 94 C-69.05638283 95.34271818 -70.09640057 96.69838123 -71.125 98.0625 C-74.08367671 101.95549566 -77.27945018 105.50736428 -80.625 109.0625 C-84.25249903 112.93374643 -87.45134051 116.77301263 -90.078125 121.3984375 C-91 123 -91 123 -92.75 125.125 C-94.43445105 127.65167658 -94.66116466 130.01824899 -95 133 C-95.66 132.01 -96.32 131.02 -97 130 C-97.51046875 130.70382813 -98.0209375 131.40765625 -98.546875 132.1328125 C-106.055702 142.33097116 -114.18730636 151.91578418 -122.8125 161.1875 C-126.45131815 165.19802538 -129.30056815 169.39459039 -132.125 174.00390625 C-137.36654067 182.37945144 -142.93642471 190.39862885 -150.12890625 197.21484375 C-155.27439736 202.1240075 -159.52724428 207.48177196 -163.25 213.53125 C-164.79523125 215.7111298 -166.40350026 217.59230069 -168.19140625 219.5703125 C-172.57965147 224.51731302 -176.22886435 229.9103951 -179.9375 235.375 C-184.48086626 242.05564331 -189.12428596 248.54346167 -194.2253418 254.81152344 C-196.37815073 257.46632867 -198.41155793 260.18490425 -200.4375 262.9375 C-206.40760806 270.92826002 -212.62749025 278.58425569 -219.4375 285.875 C-226.59620653 293.55833691 -232.79250893 301.88438885 -238.875 310.4375 C-242.56110163 315.56795166 -246.61000274 320.32354721 -250.78857422 325.05444336 C-253.84693376 328.54097324 -256.46420629 332.10391209 -259 336 C-264.65787711 343.64309715 -270.59965219 351.01653083 -276.7734375 358.24609375 C-279.0622183 360.99079542 -279.0622183 360.99079542 -281.0625 364.09375 C-282.77559709 366.66339564 -284.52328458 368.81321733 -286.625 371.0625 C-290.39296737 375.2219445 -293.82435421 379.58915868 -297.21289062 384.05639648 C-299.94138662 387.64616542 -302.74451259 391.15453324 -305.625 394.625 C-309.27629142 399.04498435 -312.64634467 403.61074483 -315.984375 408.26953125 C-317.99102207 410.98783804 -320.09065442 413.58929462 -322.25 416.1875 C-325.9843959 420.68809092 -329.51334501 425.30769468 -333 430 C-348.17622129 450.34131841 -348.17622129 450.34131841 -354 453 C-358.20787993 453.43529792 -361.52761813 453.54641337 -365 451 C-368.45281241 447.18373365 -371.46533868 443.06709484 -374.53125 438.9375 C-375.80688143 437.25475215 -377.14818339 435.62217993 -378.5 434 C-380.34865766 431.78161081 -382.09457685 429.56526031 -383.8125 427.25 C-386.1429798 424.11074187 -388.54791619 421.04525456 -391 418 C-393.98102327 414.29647682 -396.87180486 410.54233636 -399.70703125 406.7265625 C-401.41857174 404.4410613 -403.20974244 402.22425939 -405 400 C-405.97981113 398.72966348 -406.95887624 397.45875145 -407.9375 396.1875 C-411.32626074 391.81701672 -414.81500168 387.53333345 -418.3125 383.25 C-434.43208527 363.44507774 -434.43208527 363.44507774 -437.25 357.625 C-440.00828658 352.27411896 -444.2832235 348.30427962 -448.41943359 344.00927734 C-454.95283671 337.15235413 -460.479168 329.67792354 -466 322 C-467.45819932 319.99990229 -468.91651639 317.99989041 -470.375 316 C-471.30699219 314.70835937 -471.30699219 314.70835937 -472.2578125 313.390625 C-473.89009086 311.15081703 -475.56313367 308.94880089 -477.25 306.75 C-483.54587156 298.32110092 -483.54587156 298.32110092 -484.5625 293.125 C-483.18364335 285.46468527 -478.95251536 280.62973417 -473 276 C-472.30062468 274.68352881 -471.63270867 273.34977849 -471 272 C-469.33333333 270.33333333 -467.66666667 268.66666667 -466 267 C-465.06484398 265.78484088 -464.14948792 264.55429304 -463.25 263.3125 C-460.86989375 260.05132614 -458.30334704 257.08920979 -455.5625 254.125 C-451.85893734 250.08531569 -448.7025641 245.90669516 -445.703125 241.32421875 C-443.70527724 238.59779807 -441.40146242 236.37591495 -439 234 C-437.51953316 232.22657859 -436.06117508 230.43447691 -434.625 228.625 C-432.00069412 225.37503179 -429.38241208 222.27403687 -426.375 219.375 C-422.46280315 215.58871294 -419.28279102 211.33049029 -416 207 C-414.57079357 205.13943308 -413.13330044 203.28520164 -411.6875 201.4375 C-411.03136719 200.59058594 -410.37523437 199.74367188 -409.69921875 198.87109375 C-409.13847656 198.25363281 -408.57773437 197.63617188 -408 197 C-407.34 197 -406.68 197 -406 197 C-405.7215625 196.01 -405.7215625 196.01 -405.4375 195 C-403.75972889 191.49856465 -401.59796352 189.16710348 -398.99609375 186.31640625 C-396.79120858 183.75770388 -394.87631902 181.07745688 -392.9375 178.3125 C-390.79529038 175.30928689 -388.86863738 172.62792208 -385.9375 170.375 C-382.46348398 167.56622109 -380.12456361 164.39494931 -377.515625 160.79296875 C-377.01546875 160.20128906 -376.5153125 159.60960937 -376 159 C-375.34 159 -374.68 159 -374 159 C-373.62875 158.195625 -373.62875 158.195625 -373.25 157.375 C-367.32487637 146.11726509 -358.56991403 136.29324623 -350 127 C-348.19106355 124.96170964 -346.39795017 122.91111146 -344.61328125 120.8515625 C-343.58213817 119.66811984 -342.53889834 118.49504034 -341.48046875 117.3359375 C-338.51766017 114.03697913 -336.12125851 110.66443498 -333.8125 106.875 C-329.89901595 100.56320825 -325.17708193 95.13956856 -320.32373047 89.55029297 C-318.35999923 87.25046019 -316.49365099 84.87731969 -314.625 82.5 C-311.93129062 79.09598185 -309.07027937 76.07027937 -306 73 C-304.31838219 70.93923759 -302.70150473 68.83559244 -301.0859375 66.72265625 C-298.58561809 63.45913073 -296.04408264 60.22944322 -293.5 57 C-290.34333165 52.98749517 -287.19317598 48.97034927 -284.0625 44.9375 C-280.7559697 40.68513006 -277.43713016 36.48010353 -273.875 32.4375 C-270.86899521 29.01865335 -267.91911582 25.55564255 -265 22.0625 C-264.57009766 21.54921143 -264.14019531 21.03592285 -263.69726562 20.50708008 C-261.15274528 17.44891131 -258.73802725 14.32425836 -256.375 11.125 C-252.74925078 6.38827299 -248.3490575 2.67452875 -243 0 C-240.70376597 -0.12138182 -238.40400881 -0.17756733 -236.10473633 -0.20532227 C-235.39346085 -0.21522186 -234.68218536 -0.22512146 -233.94935608 -0.23532104 C-231.57694875 -0.2670918 -229.20452312 -0.29181988 -226.83203125 -0.31640625 C-225.16037036 -0.33702747 -223.48871407 -0.35802508 -221.81706238 -0.37937927 C-218.28700523 -0.4234651 -214.7569305 -0.46431811 -211.22680664 -0.50268555 C-206.8018949 -0.55083107 -202.37707755 -0.60457837 -197.95226002 -0.66066074 C-194.47936395 -0.70435836 -191.00644437 -0.7458829 -187.53351402 -0.78675652 C-185.90959917 -0.80590885 -184.28568849 -0.82542093 -182.66178322 -0.84536934 C-171.82706751 -0.9759124 -160.99442678 -1.00489624 -150.15893555 -0.9934082 C-135.91013987 -0.97922917 -121.66445735 -1.09034864 -107.41644287 -1.24632645 C-103.30385554 -1.29049792 -99.19124855 -1.33131116 -95.07861328 -1.37069702 C-94.37402355 -1.37745819 -93.66943382 -1.38421935 -92.94349289 -1.3911854 C-91.50816613 -1.4049406 -90.07283924 -1.41868142 -88.63751221 -1.43240809 C-79.12008714 -1.52348649 -69.60271434 -1.61700873 -60.08544922 -1.72363281 C-53.57870306 -1.79649641 -47.07192868 -1.86205675 -40.56502438 -1.91914403 C-37.14741911 -1.94941088 -33.72994081 -1.98331274 -30.31246948 -2.02626419 C-26.52864716 -2.07209751 -22.74491316 -2.10516631 -18.9609375 -2.13525391 C-17.84726303 -2.1517952 -16.73358856 -2.16833649 -15.58616638 -2.18537903 C-9.97549511 -2.21613464 -5.29360354 -1.90698147 0 0 Z " fill="#FFE49F" transform="translate(979,66)"/>
<path d="M0 0 C4.05440242 0.15593855 6.36637513 0.49000925 9.5625 3.0625 C15.62624858 10.37009444 21.75678428 18.14548451 26.36328125 26.4609375 C28.36053992 29.55931013 30.83896341 31.92538615 33.5 34.4375 C38.06514837 38.86908228 42.20478894 43.4882766 46.125 48.5 C46.58583984 49.0870874 47.04667969 49.6741748 47.52148438 50.27905273 C49.26105249 52.54212621 50.85356393 54.68326421 52.0546875 57.28125 C53.2995515 59.54463909 54.70259862 59.90351298 57 61 C58.5 62.671875 58.5 62.671875 60 64.75 C63.14960044 68.94721433 66.45470656 72.96111365 69.875 76.9375 C70.39352539 77.54078125 70.91205078 78.1440625 71.44628906 78.765625 C74.50118507 82.30387854 77.60320079 85.7928763 80.75 89.25 C86.66845309 95.7869581 92.05617855 102.64402471 97.1875 109.8125 C99.88767782 113.56333066 102.64034451 116.81263453 106 120 C110.59988175 125.0097722 114.87408807 130.26832883 119.06640625 135.62109375 C120.78914454 137.74058389 122.60251468 139.66500928 124.5 141.625 C126.73972255 144.26467301 127.03695227 145.18784071 127.75 148.8125 C126.59671809 162.13931315 111.46677454 174.70222721 103 184 C94.8907803 192.93110008 87.34140425 202.47451394 80.4140625 212.3515625 C79 214 79 214 76.64453125 215.8203125 C73.6225836 218.31107585 71.37839023 221.12690587 69.0625 224.25 C68.629375 224.82194092 68.19625 225.39388184 67.75 225.9831543 C65.83765627 228.51379872 63.95438502 231.0627789 62.08984375 233.62890625 C61.56519531 234.34949219 61.04054688 235.07007813 60.5 235.8125 C60.0565625 236.43769531 59.613125 237.06289063 59.15625 237.70703125 C58.7746875 238.13371094 58.393125 238.56039062 58 239 C57.34 239 56.68 239 56 239 C55.75378906 239.73992187 55.50757813 240.47984375 55.25390625 241.2421875 C53.86414275 244.2988013 52.38801768 245.85168024 49.9375 248.125 C43.60193046 254.25879981 38.26799581 261.1061124 32.8359375 268.03515625 C32.02249878 269.06648682 32.02249878 269.06648682 31.19262695 270.11865234 C30.11766294 271.48292448 29.04834163 272.85166433 27.98510742 274.22509766 C26.70226757 275.8536509 25.3563049 277.43210308 24 279 C23.34 279 22.68 279 22 279 C21.77699219 279.70253906 21.55398438 280.40507813 21.32421875 281.12890625 C19.70722885 284.6347693 17.43813217 287.16869158 14.8125 289.9375 C14.32072266 290.46384033 13.82894531 290.99018066 13.32226562 291.5324707 C2.69438634 302.7784524 2.69438634 302.7784524 -3.57271767 303.15428257 C-4.61111982 303.16810946 -5.64952198 303.18193636 -6.71939087 303.19618225 C-8.50936241 303.22348671 -8.50936241 303.22348671 -10.335495 303.25134277 C-12.30338737 303.27400208 -12.30338737 303.27400208 -14.31103516 303.29711914 C-15.70619773 303.31656548 -17.10135455 303.33642754 -18.49650574 303.35667419 C-22.29795978 303.41059435 -26.09946862 303.45850036 -29.90101671 303.50525212 C-33.90950774 303.55544816 -37.91792857 303.6107541 -41.92636108 303.66539001 C-48.69045096 303.75682799 -55.45458084 303.84457049 -62.21875 303.92993164 C-69.9497691 304.02751769 -77.68071345 304.12981011 -85.41163218 304.23503023 C-93.72009503 304.34807072 -102.02860106 304.45765323 -110.33712339 304.56622386 C-112.6843561 304.59710104 -115.03158027 304.62856656 -117.37880325 304.66017342 C-134.94401351 304.8954319 -152.50504209 305.04773781 -170.07200813 305.0013361 C-180.66019486 304.977805 -191.23016406 305.16982137 -201.8125 305.5 C-207.38213981 305.66872549 -212.95158353 305.82231833 -218.52252197 305.94140625 C-220.25378722 305.98235165 -221.98487629 306.03116543 -223.71575928 306.0859375 C-226.46015085 306.17048193 -229.2040573 306.22826333 -231.94921875 306.28125 C-232.79547318 306.31287231 -233.6417276 306.34449463 -234.5136261 306.3770752 C-240.38169366 306.4533329 -240.38169366 306.4533329 -243.52270508 304.15039062 C-245 302 -245 302 -245.6875 299.3125 C-244.61029014 294.12230706 -241.35680972 290.99675611 -238 287 C-236.66599546 285.30072618 -235.34799138 283.58964794 -234.02905273 281.87866211 C-227.50214309 273.43601199 -220.54861775 265.54861775 -213 258 C-209.86086571 254.14896701 -206.8150009 250.2226851 -203.75 246.3125 C-191.01531783 230.09893033 -191.01531783 230.09893033 -184.77734375 223.0546875 C-180.72457847 218.3695127 -176.94170772 213.45709928 -173.1015625 208.59765625 C-168.75934606 203.1300082 -164.30593971 197.77131597 -159.76831055 192.46557617 C-157.86155733 190.23063111 -156.00732992 188.01027874 -154.30078125 185.6171875 C-153.87152344 185.08351563 -153.44226563 184.54984375 -153 184 C-152.34 184 -151.68 184 -151 184 C-150.75378906 183.44441406 -150.50757813 182.88882813 -150.25390625 182.31640625 C-148.75995594 179.55655412 -146.94941592 177.34683141 -144.9375 174.9375 C-144.13054687 173.96683594 -143.32359375 172.99617187 -142.4921875 171.99609375 C-141.25855469 170.51302734 -141.25855469 170.51302734 -140 169 C-138.52028334 167.16711055 -137.04110521 165.33378618 -135.5625 163.5 C-132.42578409 159.65587788 -129.17431336 155.96117468 -125.8125 152.3125 C-121.12830922 147.21435748 -116.9074983 142.01708881 -113.20703125 136.1640625 C-110.76131671 132.65781687 -108.03283376 129.74363248 -105.0625 126.6875 C-98.20865527 119.48776948 -92.2514136 111.72633529 -86.32299805 103.76074219 C-83.27402111 99.70294155 -80.02886014 95.80024826 -76.8125 91.875 C-76.02488281 90.91335938 -75.23726562 89.95171875 -74.42578125 88.9609375 C-73.22501953 87.49527344 -73.22501953 87.49527344 -72 86 C-69.75094934 83.25159042 -67.50232021 80.50283671 -65.25390625 77.75390625 C-63.74201773 75.90662478 -62.22898251 74.06028125 -60.71484375 72.21484375 C-58.47233348 69.47998131 -56.23439712 66.74149433 -54 64 C-53.27296875 63.10796875 -52.5459375 62.2159375 -51.796875 61.296875 C-48.99214983 57.82732608 -46.27253579 54.41269706 -43.8125 50.6875 C-42 48 -42 48 -39.6875 45.75 C-37.31189058 43.31914384 -35.62632357 41.05798539 -33.75 38.25 C-30.66430212 33.72520225 -27.19698751 30.07343704 -23.26171875 26.28515625 C-20.20589698 23.19766793 -17.58130314 19.84179269 -14.91015625 16.421875 C-10.60571428 10.96430031 -5.98598466 5.83933806 -1 1 C-0.67 0.67 -0.34 0.34 0 0 Z " fill="#FFE49F" transform="translate(279,613)"/>
</svg>
